<?xml version="1.0" encoding="UTF-8" standalone="no"?>
<svg xmlns="http://www.w3.org/2000/svg" height="1280" width="800" version="1.1" viewBox="0 0 211.66666 338.66668">
 <rect style="color-rendering:auto;color:#000000;isolation:auto;mix-blend-mode:normal;paint-order:stroke fill markers;shape-rendering:auto;solid-color:#000000;image-rendering:auto" rx="0" ry="0" height="338.7" width="211.7" y="-.01667" x="-.01666" fill="#111"/>
 <path stroke-width=".4814" fill="#fff" d="m110.9 134.4c1.442 3.517 2.907 7.028 4.362 10.54-2.52-1.075-5.031-2.183-7.549-3.266 1.042-2.433 2.114-4.852 3.186-7.274"/>
 <path stroke-width=".4814" fill="#fff" d="m133 132.6c-1.143 1.118-2.369 2.149-3.538 3.24-0.3929-0.9652-0.805-1.925-1.206-2.887-0.1953-0.3476 0.009-0.7188 0.1446-1.045 0.3779-0.8223 0.6996-1.665 1.054-2.496 1.217 1.023 2.338 2.153 3.546 3.188"/>
 <path stroke-width=".4814" fill="#fff" d="m129.2 126.8c-0.5767 1.315-1.179 2.619-1.789 3.918-0.8063-1.846-1.639-3.68-2.417-5.536 1.421 0.4886 2.806 1.078 4.207 1.618"/>
 <path stroke-width=".4814" fill="#fff" d="m127.4 134.5c0.6152 1.288 1.182 2.597 1.785 3.889-1.393 0.5898-2.807 1.125-4.22 1.663 0.7838-1.862 1.622-3.703 2.436-5.551"/>
 <path stroke-width=".4814" fill="#fff" d="m126.5 131.7c0.1334 0.323 0.3245 0.6312 0.3774 0.9796-0.1301 0.4626-0.3548 0.8915-0.5388 1.336-0.8992 2.139-1.816 4.274-2.736 6.407-1.153-2.556-2.2-5.161-3.32-7.732 0.4002-1.037 0.8608-2.046 1.285-3.073 0.6903-1.572 1.324-3.172 2.035-4.734 0.9633 2.273 1.943 4.539 2.897 6.816"/>
 <path stroke-width=".4814" fill="#fff" d="m123.4 122.1c-1.282 2.887-2.551 5.782-3.813 8.675-1.298-2.889-2.562-5.797-3.824-8.699 2.546 0.0177 5.093-0.0241 7.635 0.0244"/>
 <path stroke-width=".4814" fill="#fff" d="m119.7 134.4c1.299 2.879 2.541 5.782 3.816 8.675-2.539 0.0245-5.075 0.0212-7.611 0.001 1.253-2.896 2.536-5.782 3.797-8.675"/>
 <path stroke-width=".4814" fill="#fff" d="m115.2 123.8c1.256 2.942 2.529 5.877 3.753 8.829-1.233 2.948-2.479 5.889-3.753 8.819-1.263-2.936-2.513-5.874-3.758-8.814 1.245-2.948 2.5-5.892 3.758-8.834"/>
 <path stroke-width=".4814" fill="#fff" d="m115.2 120.4c-1.42 3.534-2.911 7.043-4.358 10.56-1.072-2.421-2.153-4.838-3.176-7.279 2.516-1.082 5.04-2.15 7.534-3.284"/>
 <path stroke-width=".4814" fill="#fff" d="m110 132c0.1127 0.3163 0.3703 0.6605 0.1502 0.9898-1.083 2.477-2.14 4.963-3.255 7.429-1.023-2.268-1.982-4.564-3.002-6.831-0.0564-0.1661-0.2706-0.104-0.4026-0.1277-1.237 0-2.475 0.006-3.714 0.00096 0.0025-0.5198 0.0037-1.041 0-1.56 1.315-0.0398 2.63 0.007 3.945-0.0212 0.1658 0.015 0.1974-0.1963 0.2642-0.3028 0.969-2.219 1.925-4.446 2.915-6.658 1.036 2.359 2.059 4.723 3.099 7.081"/>
 <path style="font-variant-ligatures:normal;font-variant-numeric:normal;font-variant-caps:normal;font-feature-settings:normal" stroke-width="1.366" fill="#fff" d="m119.9 161.2q-1.425 0-2.602-0.295-1.177-0.2681-2.044-0.9119-0.8364-0.6437-1.301-1.69t-0.4646-2.602v-2.95h-8.61v-2.536h23v5.472q0 2.762-1.332 4.129-1.301 1.368-4.367 1.368zm5.394-8.449h-9.416v1.93q0 1.153 0.2169 1.93 0.2167 0.8047 0.7123 1.261 0.5265 0.456 1.363 0.6437 0.8363 0.2146 2.075 0.2146h0.5265q1.24 0 2.107-0.161 0.8672-0.1341 1.394-0.5097 0.5266-0.3755 0.7744-1.019 0.2478-0.6437 0.2478-1.609z"/>
 <path style="font-variant-ligatures:normal;font-variant-numeric:normal;font-variant-caps:normal;font-feature-settings:normal" stroke-width="1.366" fill="#fff" d="m104.8 165.7v-2.494h23v2.494z"/>
 <path style="font-variant-ligatures:normal;font-variant-numeric:normal;font-variant-caps:normal;font-feature-settings:normal" stroke-width="1.366" fill="#fff" d="m104.8 180.5v-2.386l16.79-7.591h-16.79v-2.326h23v2.36l-17.18 7.67h17.18v2.2z"/>
 <path style="font-variant-ligatures:normal;font-variant-numeric:normal;font-variant-caps:normal;font-feature-settings:normal" stroke-width="1.366" fill="#fff" d="m125.2 192.4v-6.785h-6.938v6.599h-2.633v-6.599h-8.239v6.839h-2.571v-9.36h22.96v9.307z"/>
 <path style="font-variant-ligatures:normal;font-variant-numeric:normal;font-variant-caps:normal;font-feature-settings:normal" stroke-width="1.366" fill="#fff" d="m123 204.8v-1.986q1.394-0.3755 1.982-1.073 0.5886-0.6974 0.5886-1.555 0-1.126-0.6195-1.796-0.6195-0.6438-1.703-0.9924-1.084-0.3218-2.54-0.4292-1.425-0.0804-3.098-0.0804 1.084 1.207 1.518 2.2 0.4336 1.019 0.4336 1.93 0 2.36-1.611 3.487-1.611 1.126-5.172 1.126h-0.6814q-1.734 0-3.16-0.2414-1.394-0.2414-2.385-0.8851-0.9912-0.6168-1.548-1.69-0.5265-1.073-0.5265-2.762 0-2.066 0.8054-3.192 0.8363-1.126 2.323-1.663 1.518-0.5364 3.594-0.6437 2.107-0.1073 4.677-0.1073 2.509 0 4.739 0.1073 2.229 0.1341 3.903 0.6974 1.673 0.5631 2.633 1.716 0.9602 1.18 0.9602 3.272 0 1.395-0.7123 2.547-0.7123 1.18-2.54 2.012zm-10.35-1.69q2.54 0 3.562-0.751t1.022-2.306q0-0.8582-0.4647-1.716-0.4646-0.8315-1.27-1.395h-0.9q-1.734 0-3.127 0.0804-1.363 0.0804-2.323 0.3755-0.9601 0.3218-1.455 0.9387-0.4956 0.6168-0.4956 1.69 0 1.796 1.27 2.441 1.301 0.6437 3.996 0.6437z"/>
 <path style="font-variant-ligatures:normal;font-variant-numeric:normal;font-variant-caps:normal;font-feature-settings:normal" stroke-width="1.366" fill="#fff" d="m113.6 217.1v1.18h-2.354v-1.18h-6.288v-2.36h6.288v-7.483h1.982l14.72 7.456v2.386zm0-7.51v5.15h10z"/>
</svg>
