<?xml version="1.0" encoding="UTF-8" standalone="no"?>
<svg
   xmlns:dc="http://purl.org/dc/elements/1.1/"
   xmlns:cc="http://creativecommons.org/ns#"
   xmlns:rdf="http://www.w3.org/1999/02/22-rdf-syntax-ns#"
   xmlns:svg="http://www.w3.org/2000/svg"
   xmlns="http://www.w3.org/2000/svg"
   xmlns:sodipodi="http://sodipodi.sourceforge.net/DTD/sodipodi-0.dtd"
   xmlns:inkscape="http://www.inkscape.org/namespaces/inkscape"
   height="1440"
   width="720"
   version="1.1"
   viewBox="0 0 190.5 381"
   id="svg36"
   sodipodi:docname="PinePhone-BootSplash-720x1440-small.svg"
   inkscape:version="0.92.5 (0.92.5+68)">
  <metadata
     id="metadata42">
    <rdf:RDF>
      <cc:Work
         rdf:about="">
        <dc:format>image/svg+xml</dc:format>
        <dc:type
           rdf:resource="http://purl.org/dc/dcmitype/StillImage" />
        <dc:title></dc:title>
      </cc:Work>
    </rdf:RDF>
  </metadata>
  <defs
     id="defs40" />
  <sodipodi:namedview
     pagecolor="#ffffff"
     bordercolor="#666666"
     borderopacity="1"
     objecttolerance="10"
     gridtolerance="10"
     guidetolerance="10"
     inkscape:pageopacity="0"
     inkscape:pageshadow="2"
     inkscape:window-width="1859"
     inkscape:window-height="1056"
     id="namedview38"
     showgrid="false"
     inkscape:zoom="0.35330837"
     inkscape:cx="522.77757"
     inkscape:cy="598.92731"
     inkscape:window-x="61"
     inkscape:window-y="24"
     inkscape:window-maximized="1"
     inkscape:current-layer="svg36" />
  <rect
     style="color:#000000;isolation:auto;mix-blend-mode:normal;solid-color:#000000;fill:#111111;paint-order:stroke fill markers;color-rendering:auto;image-rendering:auto;shape-rendering:auto"
     rx="1.6390001"
     ry="0"
     height="381"
     width="190.5"
     y="0"
     x="0"
     id="rect2" />
  <g
     id="g4852"
     transform="translate(-5.2910015)">
    <path
       style="fill:#ffffff"
       inkscape:connector-curvature="0"
       id="path4"
       d="m 100.55,126.12 c 1.973,2.018 3.793,4.181 5.719,6.247 -1.704,0.6936 -3.398,1.421 -5.097,2.129 -0.6136,0.3449 -1.268997,-0.0145 -1.843997,-0.2552 -1.452,-0.6671 -2.94,-1.235 -4.408,-1.86 1.805,-2.148 3.801,-4.128 5.626997,-6.259" />
    <path
       style="fill:#ffffff"
       inkscape:connector-curvature="0"
       id="path6"
       d="m 90.270003,132.87 c 2.322,1.018 4.622,2.081 6.917,3.157 -3.258,1.423 -6.497,2.894 -9.773,4.268 0.8625,-2.509 1.904,-4.953 2.856,-7.428" />
    <path
       style="fill:#ffffff"
       inkscape:connector-curvature="0"
       id="path8"
       d="m 103.86,136 c 2.274,-1.086 4.584,-2.087 6.866,-3.152 1.041,2.458 1.985,4.955 2.935,7.449 -3.287,-1.384 -6.536,-2.863 -9.799,-4.299" />
    <path
       style="fill:#ffffff"
       inkscape:connector-curvature="0"
       id="path10"
       d="m 98.850003,137.69 c 0.5702,-0.2355 1.114,-0.5729 1.728997,-0.6664 0.8165,0.2297 1.574,0.6264 2.357,0.951 3.776,1.587 7.546,3.205 11.31,4.83 -4.512,2.035 -9.11,3.883 -13.65,5.861 -1.830997,-0.7064 -3.612997,-1.52 -5.424997,-2.269 -2.776,-1.218 -5.598,-2.336 -8.358,-3.593 4.013,-1.7 8.013,-3.432 12.03,-5.114" />
    <path
       style="fill:#ffffff"
       inkscape:connector-curvature="0"
       id="path12"
       d="m 82.025003,142.97 c 5.097,2.261 10.21,4.502 15.31,6.731 -5.1,2.29 -10.23,4.524 -15.36,6.75 0.03128,-4.495 -0.04266,-8.992 0.04309,-13.48" />
    <path
       style="fill:#ffffff"
       inkscape:connector-curvature="0"
       id="path14"
       d="m 103.7,149.77 c 5.083,-2.292 10.21,-4.485 15.31,-6.736 0.0433,4.48 0.0373,8.958 0.003,13.44 -5.112,-2.213 -10.21,-4.478 -15.31,-6.702" />
    <path
       style="fill:#ffffff"
       inkscape:connector-curvature="0"
       id="path16"
       d="m 84.914003,157.47 c 5.194,-2.216 10.38,-4.463 15.589997,-6.625 5.203,2.176 10.39,4.377 15.57,6.625 -5.181,2.229 -10.37,4.434 -15.56,6.635 -5.202997,-2.196 -10.399997,-4.413 -15.599997,-6.635" />
    <path
       style="fill:#ffffff"
       inkscape:connector-curvature="0"
       id="path18"
       d="m 78.880003,157.47 c 6.239,2.506 12.43,5.138 18.64,7.693 -4.273,1.892 -8.541,3.801 -12.85,5.606 -1.909,-4.442 -3.796,-8.898 -5.798,-13.3" />
    <path
       style="fill:#ffffff"
       inkscape:connector-curvature="0"
       id="path20"
       d="m 103.61,165.17 c 6.208,-2.547 12.41,-5.131 18.6,-7.7 -1.898,4.449 -3.854,8.881 -5.765,13.32 -4.295,-1.839 -8.565,-3.733 -12.84,-5.623" />
    <path
       style="fill:#ffffff"
       inkscape:connector-curvature="0"
       id="path22"
       d="m 99.360003,166.57 c 0.5584,-0.1988 1.165997,-0.6536 1.746997,-0.2651 4.372,1.911 8.76,3.779 13.11,5.745 -4.003,1.806 -8.057,3.499 -12.06,5.3 -0.2933,0.0995 -0.1835,0.4777 -0.2253,0.7107 0,2.184 0.0101,4.369 0.002,6.555 -0.9177,-0.004 -1.837,-0.007 -2.754997,0 -0.07037,-2.322 0.01275,-4.642 -0.0374,-6.965 0.02651,-0.2926 -0.3466,-0.3485 -0.5345,-0.4666 -3.919,-1.711 -7.849,-3.398 -11.75,-5.145 4.164,-1.829 8.339,-3.634 12.5,-5.471" />
  </g>
  <g
     id="g4860"
     transform="translate(-5.2945015)">
    <path
       inkscape:connector-curvature="0"
       id="path24"
       d="m 82.442003,200.47 q 0,1.12 -0.2318,2.045 -0.2107,0.9248 -0.7165,1.606 -0.5058,0.6572 -1.328,1.022 -0.822,0.3651 -2.045,0.3651 h -2.318 v 6.766 h -1.981 v -18.05 h 4.3 q 2.17,0 3.245,1.047 1.075,1.022 1.075,3.432 z m -6.638,-4.284 v 7.399 h 1.517 q 0.9062,0 1.517,-0.1704 0.6323,-0.1704 0.9905,-0.5598 0.3583,-0.4138 0.5058,-1.071 0.1686,-0.6572 0.1686,-1.631 v -0.4138 q 0,-0.9735 -0.1265,-1.655 -0.1054,-0.6814 -0.4005,-1.095 -0.296,-0.5 -0.802,-0.7 -0.506,-0.2 -1.265,-0.2 z"
       style="font-variant-ligatures:normal;font-variant-caps:normal;font-variant-numeric:normal;font-feature-settings:normal;fill:#ffffff" />
    <path
       inkscape:connector-curvature="0"
       id="path26"
       d="m 85.929003,212.27 h -1.96 v -18.05 h 1.96 z"
       style="font-variant-ligatures:normal;font-variant-caps:normal;font-variant-numeric:normal;font-feature-settings:normal;fill:#ffffff" />
    <path
       inkscape:connector-curvature="0"
       id="path28"
       d="m 97.590003,212.27 h -1.875 l -5.965,-13.2 v 13.2 h -1.749 v -18.05 h 1.855 l 6.006,13.51 v -13.51 h 1.728 z"
       style="font-variant-ligatures:normal;font-variant-caps:normal;font-variant-numeric:normal;font-feature-settings:normal;fill:#ffffff" />
    <path
       inkscape:connector-curvature="0"
       id="path30"
       d="m 106.9,196.27 h -5.332 v 5.452 h 5.185 v 2.068 h -5.185 v 6.474 h 5.373 v 2.02 h -7.354997 v -18.05 H 106.899 Z"
       style="font-variant-ligatures:normal;font-variant-caps:normal;font-variant-numeric:normal;font-feature-settings:normal;fill:#ffffff" />
    <path
       inkscape:connector-curvature="0"
       id="path32"
       d="m 116.71,197.97 h -1.56 q -0.295,-1.095 -0.843,-1.558 -0.548,-0.4625 -1.222,-0.4625 -0.8851,0 -1.412,0.4868 -0.5058,0.4868 -0.7798,1.339 -0.2528,0.8519 -0.3372,1.995 -0.0632,1.12 -0.0632,2.434 0.9483,-0.8519 1.728,-1.193 0.8008,-0.3407 1.517,-0.3407 1.855,0 2.74,1.266 0.8851,1.266 0.8851,4.065 v 0.5354 q 0,1.362 -0.1897,2.482 -0.1897,1.095 -0.6955,1.874 -0.4847,0.7788 -1.328,1.217 -0.843,0.4138 -2.17,0.4138 -1.623,0 -2.508,-0.6328 -0.8851,-0.6572 -1.307,-1.826 -0.4215,-1.193 -0.5058,-2.824 -0.0843,-1.655 -0.0843,-3.675 0,-1.972 0.0843,-3.724 0.1054,-1.752 0.548,-3.067 0.4425,-1.314 1.348,-2.068 0.9273,-0.7545 2.571,-0.7545 1.096,0 2.002,0.5598 0.9273,0.5598 1.58,1.995 z m -1.328,8.129 q 0,-1.995 -0.5901,-2.799 -0.5901,-0.8032 -1.812,-0.8032 -0.6743,0 -1.348,0.3651 -0.6533,0.3651 -1.096,0.9979 v 0.8032 q 0,1.362 0.0632,2.458 0.0632,1.071 0.295,1.826 0.2529,0.7545 0.7376,1.144 0.4847,0.3894 1.328,0.3894 1.412,0 1.918,-0.9979 0.5058,-1.022 0.5058,-3.14 z"
       style="font-variant-ligatures:normal;font-variant-caps:normal;font-variant-numeric:normal;font-feature-settings:normal;fill:#ffffff" />
    <path
       inkscape:connector-curvature="0"
       id="path34"
       d="m 126.34,205.37 h 0.9273 v 1.849 H 126.34 v 4.941 h -1.855 v -4.941 h -5.88 v -1.558 l 5.858,-11.56 h 1.875 z m -5.901,0 h 4.046 v -7.861 z"
       style="font-variant-ligatures:normal;font-variant-caps:normal;font-variant-numeric:normal;font-feature-settings:normal;fill:#ffffff" />
  </g>
</svg>
